# xmcd
#
# Track frame offsets:
#	150
#	17398
#	39469
#	60982
#	80076
#	104885
#	127659
#	142856
#	166837
#	196483
#	214113
#	235742
#	258153
#	277210
#	298488
#
# Disc length: 4251
#
# Revision: 1
# Processed by: cddbd v1.5.1PL0 Copyright (c) Steve Scherf et al.
# Submitted via: CDex 1.51
# Normalized: r0:DSETVAR1,TDELIM( - )
#
DISCID=d710990f
DTITLE=Various Artist - Lo mejor de la salsa Romantica
DYEAR=2002
DGENRE=Salsa
TTITLE0=Tragedia - Marc Anthony
TTITLE1=No me vayas a engañar - Mariano Civico
TTITLE2=Eso me gusta - Pedro Conga
TTITLE3=Con cada beso - Huey Dunvar
TTITLE4=Amame - Gran Combo
TTITLE5=Vicio - Pedro Conga
TTITLE6=Ella - Alex
TTITLE7=Cara dura - David Pabon
TTITLE8=Quiero saber - Willie Colon
TTITLE9=Veneno para 2 - Bronco
TTITLE10=No existe un lugar - Rey Ruiz
TTITLE11=Era mujer - Mariano Civico
TTITLE12=Poder decir - Gilberto Sauto resa
TTITLE13=Como se le explica al corazon - Victor manuelle
TTITLE14=No - Rey Ruiz
EXTD=YEAR: 2002
EXTT0=
EXTT1=
EXTT2=
EXTT3=
EXTT4=
EXTT5=
EXTT6=
EXTT7=
EXTT8=
EXTT9=
EXTT10=
EXTT11=
EXTT12=
EXTT13=
EXTT14=
PLAYORDER=
